<?xml version="1.0" encoding="UTF-8"?>
<!-- hypertext_sig:412f42784c3fca552a902dbe7d95d5144ac7eb55f5faa653e339e99e792edc58 -->
<!-- hypertext_payload:series=Example|number=007|word=SANCTIFY|rarity=RARE|card_type=VERB -->
<svg xmlns="http://www.w3.org/2000/svg" width="36" height="36" viewBox="0 0 100 100">
  <g>
    <polygon points="50.0,6 94,50.0 50.0,94 6,50.0" fill="none" stroke="#0a192f" stroke-width="2.2" opacity="0.55" />
    <polygon points="50.0,6 94,50.0 50.0,94 6,50.0" fill="none" stroke="#c5a059" stroke-width="1.2" opacity="0.38" />
    <rect x="34.80" y="23.20" width="7.19" height="7.19" rx="1.4" fill="#c5a059" opacity="0.62" />
    <rect x="46.40" y="34.80" width="7.19" height="7.19" rx="1.4" fill="#c5a059" opacity="0.62" />
    <rect x="23.20" y="46.40" width="7.19" height="7.19" rx="1.4" fill="#c5a059" opacity="0.62" />
    <rect x="46.40" y="46.40" width="7.19" height="7.19" rx="1.4" fill="#c5a059" opacity="0.62" />
    <rect x="58.00" y="46.40" width="7.19" height="7.19" rx="1.4" fill="#c5a059" opacity="0.62" />
    <rect x="69.60" y="46.40" width="7.19" height="7.19" rx="1.4" fill="#c5a059" opacity="0.62" />
    <rect x="23.20" y="58.00" width="7.19" height="7.19" rx="1.4" fill="#c5a059" opacity="0.62" />
    <rect x="46.40" y="58.00" width="7.19" height="7.19" rx="1.4" fill="#c5a059" opacity="0.62" />
    <rect x="46.40" y="69.60" width="7.19" height="7.19" rx="1.4" fill="#c5a059" opacity="0.62" />
    <circle cx="50.0" cy="50.0" r="2.2" fill="#c5a059" opacity="0.35" />
  </g>
</svg>