<?xml version="1.0" encoding="UTF-8"?>
<!-- hypertext_sig:139711d32907b5e4eed611aca64c215d95481ba1d31a2cd74257cc8ba1d0766e -->
<!-- hypertext_payload:series=2026-Q1|number=002|word=GOSPEL|rarity=RARE|card_type=NOUN -->
<svg xmlns="http://www.w3.org/2000/svg" width="36" height="36" viewBox="0 0 100 100">
  <g>
    <polygon points="50.0,6 94,50.0 50.0,94 6,50.0" fill="none" stroke="#0a192f" stroke-width="2.2" opacity="0.55" />
    <polygon points="50.0,6 94,50.0 50.0,94 6,50.0" fill="none" stroke="#c5a059" stroke-width="1.2" opacity="0.38" />
    <rect x="58.00" y="23.20" width="7.19" height="7.19" rx="1.4" fill="#c5a059" opacity="0.62" />
    <rect x="34.80" y="34.80" width="7.19" height="7.19" rx="1.4" fill="#c5a059" opacity="0.62" />
    <rect x="46.40" y="34.80" width="7.19" height="7.19" rx="1.4" fill="#c5a059" opacity="0.62" />
    <rect x="58.00" y="34.80" width="7.19" height="7.19" rx="1.4" fill="#c5a059" opacity="0.62" />
    <rect x="34.80" y="46.40" width="7.19" height="7.19" rx="1.4" fill="#c5a059" opacity="0.62" />
    <rect x="58.00" y="46.40" width="7.19" height="7.19" rx="1.4" fill="#c5a059" opacity="0.62" />
    <rect x="69.60" y="46.40" width="7.19" height="7.19" rx="1.4" fill="#c5a059" opacity="0.62" />
    <rect x="23.20" y="58.00" width="7.19" height="7.19" rx="1.4" fill="#c5a059" opacity="0.62" />
    <rect x="69.60" y="58.00" width="7.19" height="7.19" rx="1.4" fill="#c5a059" opacity="0.62" />
    <rect x="58.00" y="69.60" width="7.19" height="7.19" rx="1.4" fill="#c5a059" opacity="0.62" />
    <rect x="69.60" y="69.60" width="7.19" height="7.19" rx="1.4" fill="#c5a059" opacity="0.62" />
    <circle cx="50.0" cy="50.0" r="2.2" fill="#c5a059" opacity="0.35" />
  </g>
</svg>